<svg id="Frame" xmlns="http://www.w3.org/2000/svg" viewBox="0 0 480 480"><defs><style>.cls-1{fill:#0c6;}.cls-2{fill:#fff;}</style></defs><title>ca-logo-square-green</title><path class="cls-1" d="M0 0h480v480H0z"/><path class="cls-2" d="M91 375.68c0 16.13-.44 21.58-.44 27.14h7.63v8.94h-18a65.08 65.08 0 0 1 1-11.77h-.22c-3.16 8.83-9.37 13.08-18.85 13.08-11.77 0-18.09-7-18.09-16.24 0-9.48 5.78-16.35 24.19-17.33l11.88-.65v-3.92c0-10.9-6.54-12.21-12.42-12.21a30.61 30.61 0 0 0-10.35 2V373H46.4v-14.1a48.89 48.89 0 0 1 22.45-5.12c14.06 0 22.15 5.45 22.15 21.9zm-25.75 27.79c8.39 0 14.6-5.67 14.6-14.93v-1.74h-2.94c-13.4 0-20.71 2.4-20.71 9 .01 4.29 3.28 7.67 9.05 7.67zM166.39 380.7c0 19.51-11.88 32.37-30.52 32.37a31.52 31.52 0 0 1-11.22-1.85l-.22 19h9v8.94h-27.1v-8.94h6.32l.44-66.15h-8v-8.94h19.51a60 60 0 0 1-1.09 11.55h.22c2.94-7.74 9.15-12.86 18.85-12.86 14.21-.04 23.81 10.64 23.81 26.88zm-41.31 20.38c2.62 1.63 6.43 2.4 10.79 2.4 10.79 0 17.66-9.15 17.66-20.92 0-11.44-5.23-18.53-13.84-18.53-9.7 0-14.6 8.07-14.6 20.71zM233 380.7c0 19.51-11.88 32.37-30.52 32.37a31.52 31.52 0 0 1-11.22-1.85l-.22 19h9v8.94H173v-8.94h6.32l.44-66.15h-8v-8.94h19.54a60 60 0 0 1-1.09 11.55h.22c2.94-7.74 9.15-12.86 18.85-12.86 14.17-.04 23.72 10.64 23.72 26.88zm-41.31 20.38c2.62 1.63 6.43 2.4 10.79 2.4 10.79 0 17.66-9.15 17.66-20.92 0-11.44-5.23-18.53-13.84-18.53-9.7 0-14.6 8.07-14.6 20.71zM260.92 327.95l-.44 74.87h7.63v8.94h-26.7v-8.94h6.87l.43-65.94h-9.91v-8.93h22.12zM298.03 355.08l-.22 47.74h7.63v8.94h-27.25v-8.94h7.42l.21-38.8h-8.61v-8.94h20.82zM300.32 335a8.39 8.39 0 1 1-8.39-8.39 8.33 8.33 0 0 1 8.39 8.39zM365.6 384.29v1.09h-40.54c0 10.46 7.63 18.09 19.51 18.09a40.65 40.65 0 0 0 18.09-4.36l-.65 10a52.56 52.56 0 0 1-19.94 3.92c-18.31 0-29.86-11.44-29.86-29.43s10.68-29.86 27.79-29.86c15.57.04 25.6 10.5 25.6 30.55zm-12.86-7.19v-.54c0-7.74-4.9-13.84-13.51-13.84-8.28 0-13.62 5.34-14.17 14.39zM426.41 327.95l-.41 74.87h7.63v8.94h-19.21a65.2 65.2 0 0 1 1.09-11.55h-.22c-2.94 7.74-9.26 12.86-18.85 12.86-13.95 0-23.65-10.46-23.65-26.92 0-19.51 11.88-32.37 30.41-32.37a52.81 52.81 0 0 1 11.23 1.31l.22-18.2h-10.36v-8.94zm-27 74.87c10 0 14.6-8.5 14.6-20.71v-16.35c-2.62-1.53-6.1-2.4-10.79-2.4-10.46 0-17.55 8.83-17.55 20.92-.02 11.24 4.99 18.54 13.71 18.54zM88.28 250.08l-1.65 15.41h-9.69l.33-7.93a11.28 11.28 0 0 0-4.07-.66c-10 0-16.18 8.81-16.18 22.9 0 11.56 4.62 17.83 14.31 17.83 4.73 0 9.69-2 13.54-4.07l-1 10.24a33.51 33.51 0 0 1-14.75 3.52c-16.29 0-24.44-9.14-24.44-25.54 0-21.58 11.23-33.91 29.83-33.91a43.94 43.94 0 0 1 13.77 2.21zM135.51 248.32l-1.65 11.12a9.87 9.87 0 0 0-3.3-.55c-11.34 0-18.83 15.63-21.58 47.34H97.31c.44-3.85 1.1-8.15 1.43-12.88l2.75-35.35h-8.36l.77-9h18.83c-.55 4.73-.88 8.81-1.21 12l-1.21 10.13h.22c4-16.4 10.46-23.23 19.82-23.23a35.6 35.6 0 0 1 5.16.42zM182.19 250.41h4.62a98.4 98.4 0 0 0-1.87 13.76l-2.86 33h7.82l-.77 9h-18.06a218.79 218.79 0 0 1 3.63-25.32h-.33c-5.17 18.06-12.44 26-22.9 26-9.69 0-15.08-6.5-15.08-21 0-19.27 9.8-38 31.49-38a48 48 0 0 1 14.31 2.56zm-28.29 46.13c10.68 0 20.26-30.28 20.26-38.42a26.26 26.26 0 0 0-7.27-1.21c-12 0-18.83 13.87-18.83 29 0 6.22 1.77 10.63 5.84 10.63z"/><path class="cls-2" d="M244.73 222.67l-.77 8.59a30 30 0 0 0-7.6-1.1C224 230.15 222 236.1 220.73 249h13.32l-.77 9h-13.21l-3.41 43.16c-1.87 22.79-7.16 33.47-24.88 33.47-3.63 0-5.95-.77-9.36-1.54l.88-9.47a42.94 42.94 0 0 0 7.82 1.32c12.44 0 13.43-15.63 14.42-29.17L208.4 258h-8l.77-9h7.93c.88-19.38 8.7-27.85 24.55-27.85 2.35-.02 8.55.53 11.08 1.52zM259.15 249H275l-.77 9h-15.85c-1.1 13.21-2.75 29-2.75 32.81s1 6.39 5.28 6.39a23.85 23.85 0 0 0 11-3L271 304a29.93 29.93 0 0 1-12.77 2.86c-9.69 0-14.31-4.07-14.31-14.31 0-1.32 2.42-30.17 2.75-34.57h-8.26l.77-9h8.26l1.21-13.21 11.67-.77z"/></svg>
