<svg width="32" height="32" xmlns="http://www.w3.org/2000/svg"><path d="M16 7.784a8.216 8.216 0 1 0 0 16.432 8.216 8.216 0 0 0 0-16.432zm0 13.549a5.333 5.333 0 1 1 0-10.666 5.333 5.333 0 0 1 0 10.666zm8.541-11.954a1.92 1.92 0 1 1 0-3.84 1.92 1.92 0 0 1 0 3.84zM16 2.883c4.272 0 4.778.016 6.465.093 1.821.083 3.511.448 4.811 1.748 1.3 1.3 1.665 2.99 1.748 4.811.077 1.687.093 2.193.093 6.465s-.016 4.778-.093 6.465c-.083 1.821-.448 3.511-1.748 4.811-1.3 1.3-2.99 1.665-4.811 1.748-1.687.077-2.193.093-6.465.093s-4.778-.016-6.465-.093c-1.821-.083-3.511-.448-4.811-1.748-1.3-1.3-1.665-2.99-1.748-4.811-.077-1.687-.093-2.193-.093-6.465s.016-4.778.093-6.465c.083-1.821.448-3.511 1.748-4.811 1.3-1.3 2.99-1.665 4.811-1.748 1.687-.077 2.193-.093 6.465-.093zM16 0c-4.345 0-4.89.018-6.597.096-2.6.119-4.884.756-6.718 2.589C.852 4.518.215 6.802.096 9.403.018 11.11 0 11.655 0 16c0 4.345.018 4.89.096 6.597.119 2.6.756 4.884 2.589 6.718 1.833 1.833 4.117 2.47 6.718 2.589C11.11 31.982 11.655 32 16 32c4.345 0 4.89-.018 6.597-.096 2.6-.119 4.884-.756 6.718-2.589 1.833-1.833 2.47-4.117 2.589-6.718C31.982 20.89 32 20.345 32 16c0-4.345-.018-4.89-.096-6.597-.119-2.6-.756-4.884-2.589-6.718C27.482.852 25.198.215 22.597.096 20.89.018 20.345 0 16 0z" fill-rule="nonzero" fill="#0C6"/></svg>